PathFileType	4	(X/Y/Z)	5_coords_data.trc
DataRate	CameraRate	NumFrames	NumMarkers	Units	OrigDataRate	OrigDataStartFrame	OrigNumFrames
30.0	30.0	6	21	m	30.0	10	59
Frame#	Time	THUMB_TIP	THUMB_IP	THUMB_MCP	THUMB_CMC	INDEX_TIP	INDEX_DIP	INDEX_PIP	INDEX_MCP	MIDDLE_TIP	MIDDLE_DIP	MIDDLE_PIP	MIDDLE_MCP	RING_TIP	RING_DIP	RING_PIP	RING_MCP	PINKY_TIP	PINKY_DIP	PINKY_PIP	PINKY_MCP	WRIST
X1	Y1	Z1	X2	Y2	Z2	X3	Y3	Z3	X4	Y4	Z4	X5	Y5	Z5	X6	Y6	Z6	X7	Y7	Z7	X8	Y8	Z8	X9	Y9	Z9	X10	Y10	Z10	X11	Y11	Z11	X12	Y12	Z12	X13	Y13	Z13	X14	Y14	Z14	X15	Y15	Z15	X16	Y16	Z16	X17	Y17	Z17	X18	Y18	Z18	X19	Y19	Z19	X20	Y20	Z20	X21	Y21	Z21
8	0.2999999999999987	0.505360483255331	-0.00026997190319189013	-0.1607463483949421	0.5008588397631744	-0.007307434868055962	-0.13934052393318183	0.4810402553390828	-0.02275313117988431	-0.12097005369238711	0.47473039413841733	-0.02854354284364935	-0.07719167107730562	0.500075306426718	-0.029930773535107424	-0.09530813947563194	0.5143907555214566	-0.022023773465456586	-0.10308935192064897	0.5272057723035312	-0.00487361452636581	-0.11626725866789359	0.49230538299645543	0.019402567649797753	-0.11877043648104912	0.5024264831664177	-0.021568234664253505	-0.08458013281430213	0.5194547394564556	-0.016425487795965643	-0.08798463606286874	0.5346154583267486	0.005519702068107146	-0.09973073308127209	0.49772352114523843	0.030604307781465834	-0.1021587874877547	0.5034654169429154	-0.00781009928363674	-0.071844138251207	0.5210744718552974	-0.004581984967333863	-0.07396556773473956	0.5367233257549501	0.013413770828152649	-0.08113816307928085	0.5041656221690716	0.037200293756971536	-0.08412448157717295	0.5069219693559881	-0.009070441295652376	-0.05584225652921651	0.5238755413089273	-0.007256870710635077	-0.05735465851601462	0.5367608625130194	0.00876533319914552	-0.06160548177048983	0.5097495431116713	0.03265913150880961	-0.06220421170581572	0.4622830810018608	-0.023011742144276925	-0.051989820119430985
9	0.33333333333333187	0.5054337028863481	-0.00025678692910491296	-0.16070459552606028	0.5009191276143115	-0.00729370019981479	-0.13930131396145853	0.4810725659290378	-0.022734854367456148	-0.12095724823862147	0.474746480671956	-0.028543801040921135	-0.07718366278043703	0.5001773384369556	-0.029969086467149686	-0.09529814037398529	0.5144664557242868	-0.022017830563274	-0.10308265427659852	0.5272743732238425	-0.004864722606521155	-0.11626362426171538	0.49235726838665594	0.0193885227116688	-0.11875600772430986	0.502503861466624	-0.021604423902857772	-0.08455244485436239	0.5195132014310088	-0.016405785205912626	-0.08796660795453878	0.5346589857485438	0.005552034657424154	-0.09970836737363636	0.4977521734807484	0.030615725793083248	-0.1021263243389269	0.5035042295607048	-0.007828952765318142	-0.07181476392560496	0.5211052107891287	-0.0045569918101429074	-0.07393602093607865	0.536751213741435	0.013445775463472032	-0.08109723180495326	0.5041768770552164	0.03720803732180222	-0.08409528697940133	0.5069579264652009	-0.009087714125044166	-0.05580599582366283	0.5239081623007534	-0.007245462783402323	-0.057321124568479154	0.5367770528258523	0.008791996327012441	-0.06156418725182411	0.509748463857634	0.032666040383704686	-0.0621715172825604	0.4622830810018608	-0.023011742144276925	-0.051989820119430985
10	0.3666666666666651	0.5055342477655954	-0.00022541742016513044	-0.16064038955627918	0.5009895162345822	-0.007270344918206217	-0.1392461283664564	0.4811096921108282	-0.022717773320677592	-0.12094340866256728	0.47476799102484646	-0.028539993123302687	-0.07717384636288263	0.5003291467077138	-0.030038575810083512	-0.09526338960083952	0.5145709113219111	-0.022012733342021695	-0.10305813099178077	0.5273572687825375	-0.004841521970535334	-0.11623646153570111	0.4924305411683062	0.019399161194794123	-0.1187161937469298	0.5025861374855787	-0.021639931527570266	-0.08451441722075276	0.5195755261185961	-0.016381561236187614	-0.0879364364718681	0.534714876964338	0.005590414209091343	-0.09965999826006194	0.49779749762852776	0.03063941407637072	-0.10206886306011836	0.5035425158863429	-0.007796876560978494	-0.0717874056351615	0.5211487832498048	-0.004540242096087721	-0.0738882819971553	0.5367912064654625	0.01347545130281258	-0.08102476336398312	0.5042065101341783	0.03722272629908141	-0.08402898193951683	0.5070003442991066	-0.009108827197289449	-0.05575242232886815	0.5239475873160657	-0.007240206929753801	-0.05726873773797106	0.5367994951324346	0.008816217519883707	-0.061491499674504985	0.5097556258802336	0.032672913939941095	-0.062100287643401975	0.462283081001861	-0.023011742144276925	-0.051989820119430985
11	0.39999999999999825	0.5056757603304025	-0.00020064218396220745	-0.16056503097520644	0.501086453279776	-0.007253849390305156	-0.13918301683014836	0.4811649496002147	-0.02270726519258015	-0.12093073940547525	0.47479134237387455	-0.028525935234021027	-0.0771653397172149	0.5004539718498922	-0.030068909740106786	-0.09525465845921405	0.5146922045101846	-0.02202100761617687	-0.10303309031370966	0.5274567229210888	-0.004824891834480427	-0.11620011369639477	0.49252374024373946	0.019407942751617835	-0.11866842145411405	0.5026601778889651	-0.02166165672506537	-0.08447834415785166	0.5196378491160328	-0.016364336340270125	-0.08789844305209848	0.5347783414601113	0.005618986954254335	-0.09959923526918046	0.4978561102545861	0.030661245266095927	-0.10200382721974965	0.5035670168350619	-0.007754509003568999	-0.07176253126996499	0.52118501047296	-0.0045397431693674495	-0.07382931156942418	0.5368290556570708	0.013487572575328732	-0.08093281185579893	0.5042451784937837	0.03723324494720193	-0.08395850625799342	0.507045626920565	-0.009142875083191004	-0.055714797265077165	0.5239908965322694	-0.007246207088778767	-0.05721828930217476	0.536824088714859	0.008833280317696146	-0.061410100623040254	0.5097678460899417	0.03267573141797486	-0.062027118898648786	0.4622830810018609	-0.023011742144276925	-0.05198982011943096
12	0.43333333333333146	0.5058848264653487	-0.00017974375968354828	-0.16046927745563286	0.5012396696977619	-0.007240578861338998	-0.13910184601730197	0.4812664308380724	-0.022696718256819737	-0.12090850975257969	0.47482218428214884	-0.028512106700553708	-0.07715301931337931	0.5005838103993632	-0.03008209928077754	-0.09523408157216423	0.5148353407160943	-0.02203180778621716	-0.10298564209143415	0.5275838560673936	-0.004811586159535697	-0.11613665560620395	0.4926493689639567	0.01941916162306212	-0.11860415772696015	0.5027326466804218	-0.021641678547723586	-0.08444852182812362	0.5197202671261425	-0.01635459696709196	-0.08783489451167045	0.5348709796472146	0.005638414676410575	-0.09950420892823333	0.4979497936171201	0.03068160072660009	-0.10191517877183257	0.5036153116102671	-0.007692847093873412	-0.07173486404800528	0.5212507587019182	-0.0045394114499304195	-0.07374654233169778	0.5368980728723141	0.013499629432352056	-0.08081298006936138	0.504312139416284	0.0372400707188455	-0.08385751982468531	0.5070857583733116	-0.009150083204710002	-0.05566309415332821	0.5240356688928574	-0.00726944053872336	-0.057134051848932804	0.5368550437162779	0.008831187595293555	-0.06128681259652691	0.5097961194759706	0.03267005739258566	-0.06192427376794213	0.4622830810018608	-0.023011742144276925	-0.051989820119430985
13	0.4666666666666647	0.5060983356405369	-0.00013346371316336203	-0.1603614598558307	0.5013905769072862	-0.00719911144173746	-0.13900932577314015	0.48135524556966125	-0.022651659675930635	-0.12088132943428567	0.47486232800630856	-0.028494863210346777	-0.07713674126648035	0.5007315777977208	-0.030088221838589835	-0.0952219885979893	0.5150027086435779	-0.02203308597693454	-0.10293234595875411	0.5277365443303469	-0.004785736015784581	-0.1160620139294225	0.4927920035200666	0.01943027066815617	-0.11853186854903233	0.5028348263118919	-0.021641179355539664	-0.08438006881876489	0.5198147961959134	-0.016328998777054515	-0.08776553189481318	0.5349770012799897	0.005674880181282371	-0.0993993789702769	0.4980490438417846	0.03070751604559019	-0.10181619963534197	0.5036553486675188	-0.007558377602235988	-0.07171672449837119	0.5213196751596649	-0.004523813463364723	-0.0736565672925037	0.5369735542096664	0.013524999488004896	-0.08068340162486137	0.5043793815491956	0.037251737489937375	-0.08374651219535603	0.507119619030705	-0.009090565825883745	-0.05561993275565716	0.5240795039434878	-0.0072620493872277425	-0.05704078861700493	0.5368941667227027	0.008851049558502133	-0.061159584462895294	0.5098185903850211	0.03267056351068287	-0.06181332146218718	0.462283081001861	-0.023011742144276925	-0.05198982011943101
